<?xml version="1.0" encoding="utf-8"?>
<!-- Generator: Adobe Illustrator 24.1.0, SVG Export Plug-In . SVG Version: 6.00 Build 0)  -->
<svg version="1.1" id="Layer_1" xmlns="http://www.w3.org/2000/svg" xmlns:xlink="http://www.w3.org/1999/xlink" x="0px" y="0px"
	 viewBox="0 0 664 664" style="enable-background:new 0 0 664 664;" xml:space="preserve">
<path d="M623,172.3c-1.2,2-2.5,4.1-3.8,6.1c24.6,45.8,38.5,98,38.5,153.6c0,179.8-145.8,325.7-325.7,325.7c-39,0-76.4-6.9-111-19.4
	c-3.2,1-6.5,2-9.6,3C248.7,655.9,289.4,664,332,664c183.1,0,332-148.9,332-332C664,274.2,649.1,219.7,623,172.3z M332,0
	C148.9,0,0,148.9,0,332c0,81.5,29.6,156.2,78.5,214.1c1.5-1.4,3-2.8,4.6-4.2C35.2,485.2,6.3,412,6.3,332
	C6.3,152.2,152.2,6.3,332,6.3c37.1,0,72.8,6.2,106,17.7c3.9-0.9,7.8-1.7,11.7-2.4C413.1,7.6,373.4,0,332,0z M458.7,398.8
	c1.3,0,2,0.8,2,2.4c0,1.6-0.7,2.4-2,2.4c-12.1,1.6-29.1,6.6-50.9,14.9c-21.9,8.3-45.5,19-71,32.1c11.1,13.4,16.6,26.4,16.4,38.9
	c-0.2,12.6-7.1,25.2-20.8,37.9c-7.5,6.9-16.7,13.5-27.7,20.1c-10.9,6.5-22.9,12.7-35.7,18.6c-12.9,5.9-26.4,11.3-40.6,16.2
	c-14.2,4.9-28.1,9.3-41.6,13.2c-13.5,3.9-26.4,7-38.7,9.3c-12.2,2.3-22.9,3.7-32.1,4.4c-19.3,1-22.4-5.6-9.3-19.6
	c10.4-11.1,25-23.1,43.6-36c18.6-12.9,38.4-25.5,59.2-37.9c20.9-12.4,41.6-24.1,62.2-35.3c20.6-11.1,38.2-20.4,52.9-27.9
	c-11.4-10.8-23.8-20.6-37.2-29.4c-13.4-8.8-26.9-17.7-40.6-26.7c-13.7-9-27-18.3-39.9-27.9c-12.9-9.6-24.7-20.5-35.5-32.6
	c-13.7-15.7-22-30.6-24.7-44.8c-2.8-14.2-1.7-27.7,3.2-40.6c4.9-12.9,12.8-25.1,23.7-36.7c10.9-11.6,23.3-22.6,37-33
	c19.6-15,41.8-29.2,66.6-42.6c24.8-13.4,50.4-25.2,76.9-35.5C380.3,92.5,406.7,84,433,77.3c26.3-6.7,50.8-10.7,73.7-12
	c21.5-1.3,38.7-0.4,51.4,2.7c12.7,3.1,22,7.8,27.9,14.2c5.9,6.4,8.6,14,8.1,23c-0.5,9-3.2,18.6-8.1,28.9
	c-4.9,10.3-11.7,21-20.3,32.1c-8.7,11.1-18.2,22-28.6,32.8c-1.3,1-2.4,0.9-3.4-0.2c-1-1.1-0.8-2.2,0.5-3.2
	c9.8-10.1,18.8-20.5,26.9-31.1c8.2-10.6,14.7-20.7,19.6-30.4c4.9-9.6,7.7-18.6,8.3-26.9c0.6-8.3-1.6-15.5-6.9-21.5
	c-5.2-6-13.9-10.4-25.9-13.2c-12.1-2.8-28.4-3.7-49-2.7c-22.8,1.6-47.6,5.8-74.2,12.5c-26.6,6.7-53.1,15.3-79.6,25.7
	c-26.4,10.5-51.8,22.4-76.1,36c-24.3,13.5-45.8,27.8-64.4,42.8c-12.7,10.4-22.8,20.6-30.1,30.4c-7.3,9.8-12.3,19.3-14.9,28.6
	c-2.6,9.3-3.2,18.4-1.7,27.2c1.5,8.8,4.5,17.3,9.1,25.5c8.2,15,18.9,28.8,32.3,41.4c13.4,12.6,27.7,24.6,42.8,36
	c15.2,11.4,30.3,22.9,45.3,34.5c15,11.6,27.9,23.9,38.7,37c26.4-13.4,50.5-24.4,72.2-33C428.2,405.5,445.6,400.4,458.7,398.8z
	 M327.5,455.6c-10.1,5.2-21.5,11.2-34,17.9c-12.6,6.7-25.7,14-39.4,21.8c-13.7,7.8-27.6,15.9-41.6,24.2c-14,8.3-27.5,16.6-40.4,25
	c-12.9,8.3-24.7,16.6-35.5,25c-10.8,8.3-19.8,16.1-26.9,23.3c-4.9,5.5-6.9,9.1-5.9,10.8c1,1.6,4.9,2.3,11.8,2
	c9.1-0.3,19.7-1.7,31.8-4.2c12.1-2.4,25-5.6,38.7-9.5c13.7-3.9,27.6-8.4,41.6-13.5c14-5.1,27.4-10.5,40.1-16.4
	c12.7-5.9,24.5-12,35.3-18.4c10.8-6.4,19.6-12.8,26.4-19.3c10.8-11.4,16.3-22.4,16.6-33C346.4,480.5,340.2,468.6,327.5,455.6z"/>
</svg>
